<svg data-v-423bf9ae="" xmlns="http://www.w3.org/2000/svg" viewBox="0 0 417.94029400783637 60" class="font"><!----><!----><!----><g data-v-423bf9ae="" id="4cb6e4c7-e4d2-432d-bc94-1af4421f9b0d" fill="black" transform="matrix(4.4776120677666755,0,0,4.4776120677666755,-3.2686610574524195,-9.5367431640625e-7)"><path d="M5.57 10.36C6.93 10.36 8.15 9.80 8.99 8.90L8.33 8.32C7.63 9.04 6.65 9.49 5.57 9.49C3.37 9.49 1.65 7.66 1.65 5.42C1.65 3.18 3.37 1.34 5.57 1.34C6.65 1.34 7.64 1.79 8.33 2.52L8.99 1.93C8.15 1.04 6.93 0.48 5.57 0.48C2.87 0.48 0.73 2.69 0.73 5.42C0.73 8.15 2.87 10.36 5.57 10.36ZM16.04 3.68L16.04 4.94C15.55 4.06 14.55 3.54 13.44 3.54C11.61 3.54 10.12 4.96 10.12 6.94C10.12 8.93 11.62 10.36 13.44 10.36C14.53 10.36 15.55 9.84 16.04 8.95L16.04 10.22L16.94 10.22L16.94 3.68ZM13.51 9.51C12.14 9.51 11.02 8.39 11.02 6.93C11.02 5.49 12.14 4.40 13.51 4.40C14.81 4.40 16.04 5.39 16.04 6.97C16.04 8.48 14.87 9.51 13.51 9.51ZM21.03 10.36C22.39 10.36 23.44 9.62 23.44 8.46C23.44 7.70 23.04 6.93 21.77 6.62L20.80 6.38C20.33 6.27 19.80 6.01 19.80 5.39C19.80 4.77 20.31 4.34 21.07 4.34C21.71 4.34 22.29 4.73 22.33 5.32L23.20 5.32C23.16 4.14 22.15 3.54 21.06 3.54C19.81 3.54 18.90 4.31 18.90 5.38C18.90 6.47 19.64 6.94 20.57 7.17L21.50 7.39C22.18 7.56 22.54 7.91 22.54 8.44C22.54 9.10 21.97 9.56 21.03 9.56C20.08 9.56 19.57 9.00 19.47 8.46L18.65 8.46C18.76 9.70 19.89 10.36 21.03 10.36ZM31.29 6.93C31.29 4.86 29.93 3.54 28.07 3.54C26.22 3.54 24.74 4.86 24.74 6.93C24.74 9.00 26.22 10.36 28.07 10.36C29.30 10.36 30.42 9.77 31.00 8.72L30.23 8.39C29.79 9.10 28.99 9.51 28.10 9.51C26.78 9.51 25.80 8.72 25.65 7.32L31.28 7.32C31.29 7.20 31.29 7.06 31.29 6.93ZM25.66 6.55C25.83 5.15 26.78 4.40 28.07 4.40C29.34 4.40 30.28 5.19 30.41 6.55ZM38.56 10.36C39.91 10.36 40.96 9.62 40.96 8.46C40.96 7.70 40.57 6.93 39.30 6.62L38.33 6.38C37.86 6.27 37.32 6.01 37.32 5.39C37.32 4.77 37.84 4.34 38.60 4.34C39.24 4.34 39.82 4.73 39.86 5.32L40.73 5.32C40.68 4.14 39.68 3.54 38.58 3.54C37.34 3.54 36.43 4.31 36.43 5.38C36.43 6.47 37.17 6.94 38.09 7.17L39.03 7.39C39.70 7.56 40.07 7.91 40.07 8.44C40.07 9.10 39.49 9.56 38.56 9.56C37.60 9.56 37.10 9.00 37.00 8.46L36.18 8.46C36.29 9.70 37.42 10.36 38.56 10.36ZM45.54 3.68L44.04 3.68L44.04 1.08L43.16 1.08L43.16 3.68L41.97 3.68L41.97 4.45L43.16 4.45L43.16 10.22L44.04 10.22L44.04 4.45L45.54 4.45ZM51.76 3.68L51.76 7.31C51.74 8.89 50.62 9.48 49.59 9.48C48.52 9.48 47.74 8.71 47.74 7.45L47.74 3.68L46.84 3.68L46.84 7.49C46.83 9.30 47.91 10.36 49.49 10.36C50.30 10.36 51.37 10.00 51.76 9.07L51.76 10.22L52.65 10.22L52.65 3.68ZM60.37 0L60.37 4.94C59.88 4.06 58.87 3.54 57.76 3.54C55.93 3.54 54.45 4.96 54.45 6.94C54.45 8.93 55.94 10.36 57.76 10.36C58.86 10.36 59.88 9.84 60.37 8.95L60.37 10.22L61.26 10.22L61.26 0ZM57.83 9.51C56.46 9.51 55.34 8.39 55.34 6.93C55.34 5.49 56.46 4.40 57.83 4.40C59.14 4.40 60.37 5.39 60.37 6.97C60.37 8.48 59.19 9.51 57.83 9.51ZM68.14 3.68L65.88 9.03L63.66 3.68L62.69 3.68L65.39 10.14L64.05 13.40L65.00 13.40L69.10 3.68ZM77.64 3.54C76.55 3.54 75.52 4.07 75.04 4.97L75.04 3.68L74.14 3.68L74.14 13.40L75.04 13.40L75.04 8.95C75.53 9.84 76.54 10.36 77.64 10.36C79.48 10.36 80.96 8.95 80.96 6.96C80.96 4.97 79.48 3.54 77.64 3.54ZM77.57 9.51C76.27 9.51 75.04 8.51 75.04 6.93C75.04 5.42 76.22 4.40 77.57 4.40C78.96 4.40 80.08 5.52 80.08 6.97C80.08 8.41 78.96 9.51 77.57 9.51ZM85.71 3.54C84.69 3.54 83.99 4.17 83.66 5.28L83.66 3.68L82.75 3.68L82.75 10.22L83.66 10.22L83.66 7.76C83.66 6.15 84.14 4.41 85.69 4.41C85.93 4.41 86.24 4.45 86.58 4.59L86.74 3.74C86.49 3.61 86.07 3.54 85.71 3.54ZM90.64 10.36C92.50 10.36 94.07 9.00 94.07 6.93C94.07 4.86 92.50 3.54 90.64 3.54C88.77 3.54 87.22 4.86 87.22 6.93C87.22 9.00 88.77 10.36 90.64 10.36ZM90.64 9.51C89.25 9.51 88.12 8.48 88.12 6.93C88.12 5.39 89.25 4.40 90.64 4.40C92.01 4.40 93.17 5.39 93.17 6.93C93.17 8.48 92.01 9.51 90.64 9.51Z"></path></g><!----><!----></svg>